<svg width="46" height="45" viewBox="0 0 46 45" fill="none" xmlns="http://www.w3.org/2000/svg">
<path d="M28.5125 9.73125C29.2213 8.91427 29.7618 7.96532 30.1029 6.93888C30.4439 5.91244 30.5789 4.82874 30.5 3.75C28.3238 3.92566 26.3037 4.94917 24.875 6.6C24.1908 7.3912 23.6723 8.31165 23.3503 9.30683C23.0282 10.302 22.9091 11.3517 23 12.3937C24.0615 12.4026 25.1108 12.1671 26.0667 11.7054C27.0226 11.2437 27.8595 10.5682 28.5125 9.73125ZM33.2375 23.6812C33.2501 22.2445 33.6285 20.8347 34.3371 19.5848C35.0457 18.3348 36.0611 17.2861 37.2875 16.5375C36.5135 15.4223 35.4904 14.5028 34.2992 13.8519C33.108 13.201 31.7815 12.8365 30.425 12.7875C27.5 12.4875 24.8 14.4937 23.2437 14.4937C21.6875 14.4937 19.4937 12.825 17.0562 12.8625C15.4627 12.915 13.91 13.3796 12.5496 14.211C11.1891 15.0424 10.0674 16.2122 9.29374 17.6062C5.99374 23.3438 8.44999 31.875 11.75 36.5062C13.25 38.775 15.125 41.3437 17.6 41.25C20.075 41.1562 20.8812 39.7125 23.75 39.7125C26.6187 39.7125 27.5 41.25 29.9375 41.1937C32.375 41.1375 34.1 38.8687 35.675 36.6C36.7907 34.9529 37.6622 33.153 38.2625 31.2562C36.7765 30.6225 35.5087 29.5674 34.6157 28.2212C33.7227 26.875 33.2435 25.2967 33.2375 23.6812Z" fill="url(#paint0_linear_441_2700)"/>
<defs>
<linearGradient id="paint0_linear_441_2700" x1="22.9965" y1="3.75" x2="22.9965" y2="41.2525" gradientUnits="userSpaceOnUse">
<stop stop-color="#A4179F"/>
<stop offset="0.85" stop-color="#3E093C"/>
</linearGradient>
</defs>
</svg>
