<svg width="22" height="20" viewBox="0 0 22 20" fill="none" xmlns="http://www.w3.org/2000/svg">
<path d="M10.8134 19.0282L10.8134 19.0282L10.807 19.022L3.14626 11.6313L3.12957 11.6152L3.11146 11.6007C3.0547 11.5553 2.95969 11.4671 2.81999 11.3234C2.69539 11.1953 2.48164 10.9443 2.17057 10.5555C1.87295 10.1835 1.60759 9.80283 1.37406 9.41361C1.15192 9.04337 0.947012 8.58367 0.763179 8.02826C0.585688 7.49201 0.5 6.98033 0.5 6.49117C0.5 4.79097 0.98743 3.52498 1.90845 2.62571C2.83163 1.72435 4.12963 1.24564 5.8683 1.24564C6.31707 1.24564 6.78138 1.32332 7.2632 1.48393C7.75091 1.6465 8.20265 1.86506 8.61979 2.13939C9.06465 2.43196 9.44227 2.70316 9.75462 2.95303C10.0677 3.20349 10.3649 3.46946 10.6464 3.75098L11 4.10453L11.3536 3.75097C11.6351 3.46946 11.9323 3.20349 12.2454 2.95303L11.933 2.5626L12.2454 2.95303C12.5577 2.70316 12.9353 2.43196 13.3802 2.13939C13.7973 1.86506 14.2491 1.6465 14.7368 1.48393C15.2186 1.32332 15.6829 1.24564 16.1317 1.24564C17.8704 1.24564 19.1684 1.72435 20.0915 2.62571C21.0126 3.52498 21.5 4.79097 21.5 6.49117C21.5 8.11541 20.6601 9.83608 18.8384 11.6589L11.1933 19.0217L11.1933 19.0216L11.1866 19.0282C11.1353 19.0796 11.0834 19.1028 11 19.1028C10.9166 19.1028 10.8647 19.0796 10.8134 19.0282Z" stroke="black"/>
</svg>
