<svg width="195" height="45" viewBox="0 0 195 45" fill="none" xmlns="http://www.w3.org/2000/svg">
<path d="M28.5125 9.73125C29.2213 8.91427 29.7618 7.96532 30.1029 6.93888C30.4439 5.91244 30.5789 4.82874 30.5 3.75C28.3238 3.92566 26.3037 4.94917 24.875 6.6C24.1908 7.3912 23.6723 8.31165 23.3503 9.30683C23.0282 10.302 22.9091 11.3517 23 12.3937C24.0615 12.4026 25.1108 12.1671 26.0667 11.7054C27.0226 11.2437 27.8595 10.5682 28.5125 9.73125ZM33.2375 23.6812C33.2501 22.2445 33.6285 20.8347 34.3371 19.5848C35.0457 18.3348 36.0611 17.2861 37.2875 16.5375C36.5135 15.4223 35.4904 14.5028 34.2992 13.8519C33.108 13.201 31.7815 12.8365 30.425 12.7875C27.5 12.4875 24.8 14.4937 23.2437 14.4937C21.6875 14.4937 19.4937 12.825 17.0562 12.8625C15.4627 12.915 13.91 13.3796 12.5496 14.211C11.1891 15.0424 10.0674 16.2122 9.29374 17.6062C5.99374 23.3438 8.44999 31.875 11.75 36.5062C13.25 38.775 15.125 41.3437 17.6 41.25C20.075 41.1562 20.8812 39.7125 23.75 39.7125C26.6187 39.7125 27.5 41.25 29.9375 41.1937C32.375 41.1375 34.1 38.8687 35.675 36.6C36.7907 34.9529 37.6622 33.153 38.2625 31.2562C36.7765 30.6225 35.5087 29.5674 34.6157 28.2212C33.7227 26.875 33.2435 25.2967 33.2375 23.6812Z" fill="url(#paint0_linear_441_2702)"/>
<path d="M47.9 32.32C46.8973 32.32 45.9267 32.0853 44.988 31.616C44.0707 31.1467 43.356 30.5173 42.844 29.728L43.036 28.8V38.368H40.092V18.56H42.652L43.068 21.952L42.748 21.024C43.388 20.2133 44.1987 19.5413 45.18 19.008C46.1613 18.4747 47.26 18.208 48.476 18.208C49.7133 18.208 50.8227 18.5067 51.804 19.104C52.8067 19.7013 53.596 20.5333 54.172 21.6C54.748 22.6667 55.036 23.9147 55.036 25.344C55.036 26.7733 54.7267 28.0107 54.108 29.056C53.4893 30.1013 52.636 30.912 51.548 31.488C50.4813 32.0427 49.2653 32.32 47.9 32.32ZM47.324 29.952C48.1773 29.952 48.956 29.76 49.66 29.376C50.3853 28.9707 50.9613 28.4267 51.388 27.744C51.8147 27.04 52.028 26.2507 52.028 25.376C52.028 24.48 51.8253 23.6907 51.42 23.008C51.0147 22.304 50.4707 21.7493 49.788 21.344C49.1267 20.9387 48.38 20.736 47.548 20.736C46.78 20.736 46.0867 20.8853 45.468 21.184C44.8493 21.4827 44.3373 21.8987 43.932 22.432C43.5267 22.944 43.2387 23.5413 43.068 24.224V26.432C43.1747 27.1147 43.4307 27.7227 43.836 28.256C44.2413 28.7893 44.7427 29.2053 45.34 29.504C45.9587 29.8027 46.62 29.952 47.324 29.952ZM66.8688 32.32C65.8661 32.32 64.8954 32.0853 63.9568 31.616C63.0394 31.1467 62.3248 30.5173 61.8128 29.728L62.0048 28.8V38.368H59.0608V18.56H61.6208L62.0368 21.952L61.7168 21.024C62.3568 20.2133 63.1674 19.5413 64.1488 19.008C65.1301 18.4747 66.2288 18.208 67.4448 18.208C68.6821 18.208 69.7914 18.5067 70.7728 19.104C71.7754 19.7013 72.5648 20.5333 73.1408 21.6C73.7168 22.6667 74.0048 23.9147 74.0048 25.344C74.0048 26.7733 73.6954 28.0107 73.0768 29.056C72.4581 30.1013 71.6048 30.912 70.5168 31.488C69.4501 32.0427 68.2341 32.32 66.8688 32.32ZM66.2928 29.952C67.1461 29.952 67.9248 29.76 68.6288 29.376C69.3541 28.9707 69.9301 28.4267 70.3568 27.744C70.7834 27.04 70.9968 26.2507 70.9968 25.376C70.9968 24.48 70.7941 23.6907 70.3888 23.008C69.9834 22.304 69.4394 21.7493 68.7568 21.344C68.0954 20.9387 67.3488 20.736 66.5168 20.736C65.7488 20.736 65.0554 20.8853 64.4368 21.184C63.8181 21.4827 63.3061 21.8987 62.9008 22.432C62.4954 22.944 62.2074 23.5413 62.0368 24.224V26.432C62.1434 27.1147 62.3994 27.7227 62.8048 28.256C63.2101 28.7893 63.7114 29.2053 64.3088 29.504C64.9274 29.8027 65.5888 29.952 66.2928 29.952ZM78.0295 7.232H81.0055V32H78.0295V7.232ZM92.2985 32.32C90.7838 32.32 89.4825 32.0213 88.3945 31.424C87.3065 30.8053 86.4638 29.9733 85.8665 28.928C85.2905 27.8613 85.0025 26.6453 85.0025 25.28C85.0025 23.9787 85.3332 22.7947 85.9945 21.728C86.6558 20.6613 87.5412 19.808 88.6505 19.168C89.7598 18.528 90.9972 18.208 92.3625 18.208C94.1118 18.208 95.5625 18.72 96.7145 19.744C97.8665 20.768 98.6452 22.176 99.0505 23.968L88.1385 27.808L87.4345 26.048L96.3945 22.784L95.7545 23.2C95.4985 22.496 95.0718 21.888 94.4745 21.376C93.8772 20.8427 93.0985 20.576 92.1385 20.576C91.3278 20.576 90.6025 20.7787 89.9625 21.184C89.3225 21.568 88.8212 22.1013 88.4585 22.784C88.0958 23.4667 87.9145 24.2453 87.9145 25.12C87.9145 26.0373 88.1065 26.848 88.4905 27.552C88.8745 28.2347 89.3972 28.7787 90.0585 29.184C90.7412 29.568 91.5092 29.76 92.3625 29.76C92.9385 29.76 93.4932 29.6533 94.0265 29.44C94.5812 29.2267 95.0932 28.9493 95.5625 28.608L96.9385 30.816C96.2772 31.264 95.5305 31.6267 94.6985 31.904C93.8878 32.1813 93.0878 32.32 92.2985 32.32ZM131.945 8.864V32H128.873V21.856H116.745V32H113.641V8.864H116.745V18.912H128.873V8.864H131.945ZM136.721 25.248C136.721 23.9253 137.031 22.7307 137.649 21.664C138.289 20.5973 139.164 19.7547 140.273 19.136C141.383 18.5173 142.641 18.208 144.049 18.208C145.5 18.208 146.769 18.5173 147.857 19.136C148.945 19.7547 149.788 20.5973 150.385 21.664C150.983 22.7307 151.281 23.9253 151.281 25.248C151.281 26.5707 150.983 27.776 150.385 28.864C149.788 29.9307 148.935 30.7733 147.825 31.392C146.737 32.0107 145.468 32.32 144.017 32.32C142.609 32.32 141.351 32.032 140.241 31.456C139.153 30.8587 138.289 30.0373 137.649 28.992C137.031 27.9253 136.721 26.6773 136.721 25.248ZM139.697 25.28C139.697 26.1333 139.889 26.912 140.273 27.616C140.657 28.2987 141.169 28.8427 141.809 29.248C142.471 29.6533 143.196 29.856 143.985 29.856C144.817 29.856 145.553 29.6533 146.193 29.248C146.855 28.8427 147.367 28.2987 147.729 27.616C148.092 26.912 148.273 26.1333 148.273 25.28C148.273 24.4267 148.092 23.6587 147.729 22.976C147.367 22.272 146.855 21.7173 146.193 21.312C145.553 20.8853 144.817 20.672 143.985 20.672C143.175 20.672 142.439 20.8853 141.777 21.312C141.137 21.7387 140.625 22.304 140.241 23.008C139.879 23.6907 139.697 24.448 139.697 25.28ZM157.967 18.752L158.223 21.728L158.095 21.472C158.585 20.4693 159.279 19.68 160.175 19.104C161.092 18.528 162.137 18.24 163.311 18.24C164.057 18.24 164.719 18.3573 165.295 18.592C165.871 18.8267 166.34 19.168 166.703 19.616C167.087 20.0427 167.332 20.576 167.439 21.216L167.279 21.312C167.791 20.352 168.495 19.6053 169.391 19.072C170.308 18.5173 171.268 18.24 172.271 18.24C173.572 18.24 174.596 18.6133 175.343 19.36C176.111 20.0853 176.505 21.0347 176.527 22.208V32H173.551V23.264C173.529 22.5813 173.359 22.016 173.039 21.568C172.74 21.0987 172.207 20.8427 171.439 20.8C170.671 20.8 169.977 21.0347 169.359 21.504C168.761 21.9733 168.292 22.5813 167.951 23.328C167.609 24.0533 167.428 24.8427 167.407 25.696V32H164.431V23.264C164.409 22.5813 164.228 22.016 163.887 21.568C163.567 21.0987 163.023 20.8427 162.255 20.8C161.465 20.8 160.772 21.0347 160.175 21.504C159.577 21.9733 159.108 22.5813 158.767 23.328C158.447 24.0747 158.287 24.8747 158.287 25.728V32H155.311V18.752H157.967ZM187.861 32.32C186.346 32.32 185.045 32.0213 183.957 31.424C182.869 30.8053 182.026 29.9733 181.429 28.928C180.853 27.8613 180.565 26.6453 180.565 25.28C180.565 23.9787 180.896 22.7947 181.557 21.728C182.218 20.6613 183.104 19.808 184.213 19.168C185.322 18.528 186.56 18.208 187.925 18.208C189.674 18.208 191.125 18.72 192.277 19.744C193.429 20.768 194.208 22.176 194.613 23.968L183.701 27.808L182.997 26.048L191.957 22.784L191.317 23.2C191.061 22.496 190.634 21.888 190.037 21.376C189.44 20.8427 188.661 20.576 187.701 20.576C186.89 20.576 186.165 20.7787 185.525 21.184C184.885 21.568 184.384 22.1013 184.021 22.784C183.658 23.4667 183.477 24.2453 183.477 25.12C183.477 26.0373 183.669 26.848 184.053 27.552C184.437 28.2347 184.96 28.7787 185.621 29.184C186.304 29.568 187.072 29.76 187.925 29.76C188.501 29.76 189.056 29.6533 189.589 29.44C190.144 29.2267 190.656 28.9493 191.125 28.608L192.501 30.816C191.84 31.264 191.093 31.6267 190.261 31.904C189.45 32.1813 188.65 32.32 187.861 32.32Z" fill="url(#paint1_linear_441_2702)"/>
<defs>
<linearGradient id="paint0_linear_441_2702" x1="22.9965" y1="3.75" x2="22.9965" y2="41.2525" gradientUnits="userSpaceOnUse">
<stop stop-color="#A4179F"/>
<stop offset="0.85" stop-color="#3E093C"/>
</linearGradient>
<linearGradient id="paint1_linear_441_2702" x1="37.5" y1="22.5" x2="198.5" y2="22.5" gradientUnits="userSpaceOnUse">
<stop stop-color="#A4179F"/>
<stop offset="0.875" stop-color="#3E093C"/>
</linearGradient>
</defs>
</svg>
