<svg width="102" height="102" viewBox="0 0 102 102" fill="none" xmlns="http://www.w3.org/2000/svg">
<g style="mix-blend-mode:overlay">
<rect x="0.705155" y="-0.0288725" width="70.9966" height="70.9765" transform="matrix(0.676171 -0.736744 0.734139 0.678999 0.249546 53.6383)" stroke="#3E093C"/>
<rect x="0.480903" y="-0.518518" width="50.3976" height="50.2223" transform="matrix(-0.0374814 -0.999297 0.999288 -0.0377389 40.7335 72.7546)" stroke="#A4179F" stroke-opacity="0.44"/>
<rect x="0.703754" y="-0.055121" width="70.0208" height="69.9829" transform="matrix(0.648446 -0.761261 0.759061 0.651019 2.18036 54.5819)" stroke="#430A41" stroke-opacity="0.973333"/>
<rect x="0.70123" y="-0.081288" width="69.0447" height="68.9899" transform="matrix(0.619671 -0.784862 0.78279 0.622286 4.11298 55.5224)" stroke="#480A45" stroke-opacity="0.946667"/>
<rect x="0.697741" y="-0.107345" width="68.0682" height="67.9971" transform="matrix(0.590045 -0.807371 0.805437 0.592681 6.04627 56.4597)" stroke="#4D0B4A" stroke-opacity="0.92"/>
<rect x="0.69329" y="-0.133256" width="67.0913" height="67.0049" transform="matrix(0.55961 -0.828757 0.826971 0.562245 7.98052 57.3936)" stroke="#520C4F" stroke-opacity="0.893333"/>
<rect x="0.687883" y="-0.158985" width="66.1139" height="66.0131" transform="matrix(0.528408 -0.848991 0.847359 0.53102 9.9152 58.3242)" stroke="#570C54" stroke-opacity="0.866667"/>
<rect x="0.681528" y="-0.184499" width="65.136" height="65.0218" transform="matrix(0.496482 -0.868047 0.866573 0.499049 11.8506 59.2512)" stroke="#5B0D58" stroke-opacity="0.84"/>
<rect x="0.674232" y="-0.209761" width="64.1576" height="64.031" transform="matrix(0.463878 -0.885899 0.884586 0.466376 13.7858 60.1748)" stroke="#600E5D" stroke-opacity="0.813333"/>
<rect x="0.666005" y="-0.234738" width="63.1786" height="63.0408" transform="matrix(0.43064 -0.902524 0.901371 0.433048 15.7207 61.0948)" stroke="#650E62" stroke-opacity="0.786667"/>
<rect x="0.656858" y="-0.259395" width="62.199" height="62.0512" transform="matrix(0.396813 -0.917899 0.916903 0.399109 17.6555 62.0112)" stroke="#6A0F66" stroke-opacity="0.76"/>
<rect x="0.646803" y="-0.283698" width="61.2188" height="61.0622" transform="matrix(0.362446 -0.932005 0.931161 0.364608 19.589 62.924)" stroke="#6F106B" stroke-opacity="0.733333"/>
<rect x="0.635853" y="-0.307615" width="60.2381" height="60.0737" transform="matrix(0.327584 -0.944822 0.944123 0.329593 21.5218 63.8334)" stroke="#741170" stroke-opacity="0.706667"/>
<rect x="0.624023" y="-0.331111" width="59.2567" height="59.086" transform="matrix(0.292275 -0.956334 0.955771 0.294112 23.453 64.7391)" stroke="#791174" stroke-opacity="0.68"/>
<rect x="0.611328" y="-0.354155" width="58.2747" height="58.0987" transform="matrix(0.256569 -0.966526 0.966087 0.258216 25.3832 65.6416)" stroke="#7D1279" stroke-opacity="0.653333"/>
<rect x="0.597785" y="-0.376714" width="57.2921" height="57.1121" transform="matrix(0.220514 -0.975384 0.975057 0.221956 27.3109 66.5408)" stroke="#82137E" stroke-opacity="0.626667"/>
<rect x="0.583412" y="-0.398758" width="56.3089" height="56.1261" transform="matrix(0.184158 -0.982897 0.982667 0.185382 29.2364 67.4368)" stroke="#871382" stroke-opacity="0.6"/>
<rect x="0.568229" y="-0.420255" width="55.3251" height="55.1408" transform="matrix(0.147552 -0.989054 0.988905 0.148545 31.1602 68.3297)" stroke="#8C1487" stroke-opacity="0.573333"/>
<rect x="0.552255" y="-0.441175" width="54.3407" height="54.156" transform="matrix(0.110746 -0.993849 0.993765 0.111498 33.0807 69.2197)" stroke="#91158C" stroke-opacity="0.546667"/>
<rect x="0.535513" y="-0.46149" width="53.3557" height="53.1718" transform="matrix(0.0737892 -0.997274 0.997236 0.0742939 34.9987 70.107)" stroke="#961591" stroke-opacity="0.52"/>
<rect x="0.518024" y="-0.48117" width="52.3702" height="52.1881" transform="matrix(0.0367321 -0.999325 0.999316 0.0369844 36.9133 70.9918)" stroke="#9B1695" stroke-opacity="0.493333"/>
<rect x="0.499813" y="-0.500189" width="51.3842" height="51.2049" transform="matrix(-0.000374941 -1 1 -0.00037752 38.8252 71.8743)" stroke="#9F179A" stroke-opacity="0.466667"/>
</g>
</svg>
