<svg width="255" height="254" viewBox="0 0 255 254" fill="none" xmlns="http://www.w3.org/2000/svg">
<g style="mix-blend-mode:overlay">
<rect x="0.706515" y="132.28" width="178.58" height="178.58" transform="rotate(-47.3447 0.706515 132.28)" stroke="#3E093C"/>
<rect x="99.7288" y="180.811" width="127" height="127" transform="rotate(-92.1554 99.7288 180.811)" stroke="#A4179F" stroke-opacity="0.44"/>
<rect x="5.43102" y="134.588" width="176.124" height="176.124" transform="rotate(-49.4785 5.43102 134.588)" stroke="#430A41" stroke-opacity="0.973333"/>
<rect x="10.1546" y="136.896" width="173.668" height="173.668" transform="rotate(-51.6124 10.1546 136.896)" stroke="#480A45" stroke-opacity="0.946667"/>
<rect x="14.8772" y="139.204" width="171.212" height="171.212" transform="rotate(-53.7462 14.8772 139.204)" stroke="#4D0B4A" stroke-opacity="0.92"/>
<rect x="19.5988" y="141.513" width="168.756" height="168.756" transform="rotate(-55.8801 19.5988 141.513)" stroke="#520C4F" stroke-opacity="0.893333"/>
<rect x="24.3194" y="143.821" width="166.299" height="166.299" transform="rotate(-58.0139 24.3194 143.821)" stroke="#570C54" stroke-opacity="0.866667"/>
<rect x="29.0391" y="146.13" width="163.843" height="163.843" transform="rotate(-60.1477 29.0391 146.13)" stroke="#5B0D58" stroke-opacity="0.84"/>
<rect x="33.7578" y="148.439" width="161.387" height="161.387" transform="rotate(-62.2816 33.7578 148.439)" stroke="#600E5D" stroke-opacity="0.813333"/>
<rect x="38.4756" y="150.748" width="158.931" height="158.931" transform="rotate(-64.4154 38.4756 150.748)" stroke="#650E62" stroke-opacity="0.786667"/>
<rect x="43.1925" y="153.058" width="156.474" height="156.474" transform="rotate(-66.5493 43.1925 153.058)" stroke="#6A0F66" stroke-opacity="0.76"/>
<rect x="47.9085" y="155.368" width="154.018" height="154.018" transform="rotate(-68.6831 47.9085 155.368)" stroke="#6F106B" stroke-opacity="0.733333"/>
<rect x="52.6236" y="157.678" width="151.562" height="151.562" transform="rotate(-70.817 52.6236 157.678)" stroke="#741170" stroke-opacity="0.706667"/>
<rect x="57.3378" y="159.989" width="149.106" height="149.106" transform="rotate(-72.9508 57.3378 159.989)" stroke="#791174" stroke-opacity="0.68"/>
<rect x="62.0511" y="162.301" width="146.65" height="146.65" transform="rotate(-75.0847 62.0511 162.301)" stroke="#7D1279" stroke-opacity="0.653333"/>
<rect x="66.7635" y="164.612" width="144.193" height="144.193" transform="rotate(-77.2185 66.7635 164.612)" stroke="#82137E" stroke-opacity="0.626667"/>
<rect x="71.4752" y="166.925" width="141.737" height="141.737" transform="rotate(-79.3523 71.4752 166.925)" stroke="#871382" stroke-opacity="0.6"/>
<rect x="76.186" y="169.238" width="139.281" height="139.281" transform="rotate(-81.4862 76.186 169.238)" stroke="#8C1487" stroke-opacity="0.573333"/>
<rect x="80.896" y="171.551" width="136.825" height="136.825" transform="rotate(-83.62 80.896 171.551)" stroke="#91158C" stroke-opacity="0.546667"/>
<rect x="85.6054" y="173.865" width="134.369" height="134.369" transform="rotate(-85.7539 85.6054 173.865)" stroke="#961591" stroke-opacity="0.52"/>
<rect x="90.3139" y="176.18" width="131.912" height="131.912" transform="rotate(-87.8877 90.3139 176.18)" stroke="#9B1695" stroke-opacity="0.493333"/>
<rect x="95.0217" y="178.495" width="129.456" height="129.456" transform="rotate(-90.0216 95.0217 178.495)" stroke="#9F179A" stroke-opacity="0.466667"/>
</g>
</svg>
