<svg width="21" height="21" viewBox="0 0 21 21" fill="none" xmlns="http://www.w3.org/2000/svg">
<path d="M13.522 4.46192C13.522 6.12784 12.1715 7.47834 10.5056 7.47834C8.83963 7.47834 7.48914 6.12784 7.48914 4.46192C7.48914 2.79599 8.83963 1.4455 10.5056 1.4455C12.1715 1.4455 13.522 2.79599 13.522 4.46192Z" stroke="url(#paint0_linear_503_8175)" stroke-width="2"/>
<path d="M1.01345 19.6976C1.23771 19.9695 1.52012 20.1876 1.83987 20.3359C2.15962 20.4842 2.50857 20.5588 2.861 20.5544H18.1502C18.5036 20.5546 18.8526 20.4753 19.1713 20.3224C19.49 20.1694 19.7701 19.9467 19.991 19.6708C20.2037 19.4077 20.3554 19.1008 20.4353 18.7721C20.5151 18.4433 20.5212 18.101 20.4529 17.7697M1.01345 19.6976L1.78917 19.0665C1.78847 19.0656 1.78776 19.0648 1.78706 19.0639M1.01345 19.6976C0.796897 19.4314 0.642955 19.1199 0.563005 18.7862C0.483055 18.4525 0.479144 18.1051 0.551559 17.7697M1.01345 19.6976L1.7849 19.0613C1.78562 19.0621 1.78634 19.063 1.78706 19.0639M1.78706 19.0639C1.9158 19.2192 2.07757 19.3438 2.2606 19.4287C2.44465 19.5141 2.6455 19.557 2.84836 19.5545L2.861 19.5543V19.5544H18.1502H18.1508C18.3543 19.5545 18.5551 19.5089 18.7386 19.4208C18.922 19.3328 19.0832 19.2046 19.2104 19.0458L19.2133 19.0421C19.3331 18.894 19.4186 18.7211 19.4636 18.536C19.5081 18.3527 19.5119 18.1619 19.4746 17.977M1.78706 19.0639C1.66621 18.9145 1.58025 18.7401 1.53548 18.5532C1.49058 18.3658 1.48827 18.1707 1.5287 17.9823M19.4746 17.977C19.4752 17.9794 19.4757 17.9818 19.4762 17.9842L20.4529 17.7697M19.4746 17.977C19.4743 17.9752 19.4739 17.9733 19.4735 17.9714L20.4529 17.7697M19.4746 17.977C19.0985 16.271 18.2385 14.7094 16.9977 13.4794L16.9933 13.4751L16.9933 13.4751C16.6987 13.1794 16.3793 12.9093 16.0388 12.6679L16.0279 12.6601L16.0172 12.6521C14.4308 11.4622 12.4972 10.8268 10.5142 10.8439L10.5005 10.844L10.5005 10.8439C8.07224 10.8315 5.73756 11.7794 4.00527 13.481M20.4529 17.7697C20.0363 15.8728 19.081 14.1365 17.7017 12.7692C17.3669 12.4333 17.0041 12.1265 16.6172 11.8522C14.8554 10.5306 12.7079 9.82496 10.5056 9.84394C7.81267 9.83016 5.22353 10.8817 3.30281 12.7692M4.00527 13.481C4.00578 13.4805 4.00629 13.4799 4.0068 13.4794L3.30281 12.7692M4.00527 13.481C2.76398 14.712 1.9041 16.2749 1.5287 17.9823M4.00527 13.481C4.00475 13.4815 4.00424 13.482 4.00373 13.4825L3.30281 12.7692M3.30281 12.7692C1.9235 14.1365 0.968183 15.8728 0.551559 17.7697M0.551559 17.7697L1.52904 17.9807C1.52893 17.9812 1.52881 17.9818 1.5287 17.9823M0.551559 17.7697L1.52828 17.9842C1.52842 17.9836 1.52856 17.9829 1.5287 17.9823" stroke="url(#paint1_linear_503_8175)" stroke-width="2"/>
<defs>
<linearGradient id="paint0_linear_503_8175" x1="10.5056" y1="0.445496" x2="10.5056" y2="8.47834" gradientUnits="userSpaceOnUse">
<stop stop-color="#A4179F"/>
<stop offset="0.79" stop-color="#3E093C"/>
</linearGradient>
<linearGradient id="paint1_linear_503_8175" x1="10.5" y1="9.84357" x2="10.5" y2="20.5546" gradientUnits="userSpaceOnUse">
<stop stop-color="#A4179F"/>
<stop offset="0.79" stop-color="#3E093C"/>
</linearGradient>
</defs>
</svg>
